# 3ds Max Wavefront OBJ Exporter v0.97b - (c)2007 guruware
# 创建的文件:30.07.2019 11:54:58

mtllib group_sign_1.mtl

#
# object zhi_shi_pai01
#

v  -10.0327 14.1301 -0.4535
v  -1.6077 14.1301 -0.4535
v  -1.6077 14.1301 0.4535
v  -10.0327 14.1301 0.4535
v  -10.0327 20.5829 0.4535
v  7.3617 20.5829 0.4535
v  7.3617 20.5829 -0.4535
v  -10.0327 20.5829 -0.4535
v  10.0327 17.3488 0.4535
v  10.0327 17.3488 -0.4535
v  10.0327 17.6167 -0.4535
v  10.0327 17.6167 0.4535
v  7.3617 14.1301 -0.4535
v  -1.0632 14.1301 -0.4535
v  7.3617 14.1301 0.4535
v  -1.0632 14.1301 0.4535
v  7.2795 14.4023 0.4535
v  -9.7604 14.4023 0.4535
v  9.7604 17.4948 0.4535
v  9.7604 17.4370 0.4535
v  7.3060 20.3106 0.4535
v  -9.7604 20.3106 0.4535
v  7.2795 14.4023 -0.0909
v  -9.7604 14.4023 -0.0909
v  9.7604 17.4948 -0.0909
v  9.7604 17.4370 -0.0909
v  7.3060 20.3106 -0.0909
v  -9.7604 20.3106 -0.0909
v  -1.0632 -1.0452 0.2152
v  -1.6077 -1.0452 0.2152
v  -1.6077 -1.0452 -0.2152
v  -1.0632 -1.0452 -0.2152
v  -1.6077 12.7690 -0.4535
v  -1.6077 12.7690 -0.2152
v  -1.6077 12.7690 0.2152
v  -1.6077 12.7690 0.4535
v  -1.0632 12.7690 -0.4535
v  -1.0632 12.7690 0.4535
v  -1.0632 12.7690 0.2152
v  -1.0632 12.7690 -0.2152
# 40 vertices

vn 0.0000 -1.0000 -0.0000
vn 0.0000 1.0000 -0.0000
vn 1.0000 0.0000 -0.0000
vn 0.0000 0.0000 -1.0000
vn -1.0000 0.0000 -0.0000
vn 0.7695 -0.6386 -0.0000
vn 0.7431 0.6692 -0.0000
vn 0.0000 0.0000 1.0000
vn -0.0000 0.0000 1.0000
vn -0.0000 -0.0000 1.0000
vn -0.7800 0.6258 -0.0000
vn -0.7604 -0.6495 -0.0000
# 12 vertex normals

vt 1.0294 0.7777 0.7003
vt 0.6426 0.7777 0.7003
vt 0.6426 0.2223 0.7003
vt 1.0294 0.2223 0.7003
vt -0.0294 0.2223 0.9965
vt 0.7693 0.2223 0.9965
vt 0.7693 0.7777 0.9965
vt -0.0294 0.7777 0.9965
vt 0.2223 0.8480 0.8919
vt 0.7777 0.8480 0.8919
vt 0.7777 0.8603 0.8919
vt 0.2223 0.8603 0.8919
vt 0.2307 0.7003 0.7777
vt 0.6176 0.7003 0.7777
vt 0.6426 0.7003 0.7777
vt 1.0294 0.9965 0.7777
vt 1.0294 0.7003 0.7777
vt 0.2307 0.9965 0.7777
vt 0.2223 0.7003 -0.0294
vt 0.7777 0.7003 -0.0294
vt 0.7777 0.9965 -0.0294
vt 0.2223 0.9965 -0.0294
vt 0.2223 0.7003 0.7693
vt 0.7777 0.7003 0.7693
vt 0.1081 0.8603 0.7777
vt 0.1081 0.8480 0.7777
vt 0.7777 0.9965 0.7693
vt 0.2223 0.9965 0.7693
vt -0.0294 0.7003 0.2223
vt 0.3574 0.7003 0.2223
vt 0.3824 0.7003 0.2223
vt 0.7655 0.7128 0.2223
vt 0.7693 0.7003 0.2223
vt -0.0169 0.7128 0.2223
vt 0.8919 0.8480 0.2223
vt 0.8794 0.8548 0.2223
vt 0.8919 0.8603 0.2223
vt 0.8794 0.8521 0.2223
vt 0.7693 0.9965 0.2223
vt 0.7667 0.9840 0.2223
vt -0.0294 0.9965 0.2223
vt -0.0169 0.9840 0.2223
vt -0.0169 0.2223 0.7128
vt 0.7655 0.2223 0.7128
vt 0.7655 0.5557 0.7128
vt -0.0169 0.5557 0.7128
vt 0.7777 0.7128 0.7655
vt 0.7777 0.8548 0.8794
vt 0.4443 0.8548 0.8794
vt 0.4443 0.7128 0.7655
vt 0.2223 0.8548 0.8794
vt 0.2223 0.8521 0.8794
vt 0.5557 0.8521 0.8794
vt 0.5557 0.8548 0.8794
vt 0.7777 0.8521 0.8794
vt 0.7777 0.9840 0.7667
vt 0.4443 0.9840 0.7667
vt 0.4443 0.8521 0.8794
vt 0.2333 0.2223 0.9840
vt 1.0169 0.2223 0.9840
vt 1.0169 0.5557 0.9840
vt 0.2333 0.5557 0.9840
vt 0.2223 0.9840 -0.0169
vt 0.2223 0.7128 -0.0169
vt 0.5557 0.7128 -0.0169
vt 0.5557 0.9840 -0.0169
vt 0.2307 0.7777 0.7003
vt 0.2307 0.2223 0.7003
vt 0.6176 0.2223 0.7003
vt 0.6176 0.7777 0.7003
vt 0.6176 0.3682 0.0035
vt 0.6426 0.3682 0.0035
vt 0.6426 0.6318 0.0035
vt 0.6176 0.6318 0.0035
vt 0.7777 0.7003 0.3574
vt 0.2223 0.7003 0.3574
vt 0.2223 0.6378 0.3574
vt 0.3682 0.6378 0.3574
vt 0.6318 0.6378 0.3574
vt 0.7777 0.6378 0.3574
vt 0.6176 0.6378 0.7777
vt 0.6426 0.6378 0.7777
vt 0.7777 0.7003 0.3824
vt 0.2223 0.7003 0.3824
vt 0.2223 0.6378 0.3824
vt 0.3682 0.6378 0.3824
vt 0.6318 0.6378 0.3824
vt 0.7777 0.6378 0.3824
vt 0.3574 0.6378 0.2223
vt 0.3824 0.6378 0.2223
vt 0.6176 0.2223 0.6378
vt 0.6426 0.2223 0.6378
vt 0.6426 0.3682 0.6378
vt 0.6176 0.3682 0.6378
vt 0.6426 0.7777 0.6378
vt 0.6176 0.7777 0.6378
vt 0.6176 0.6318 0.6378
vt 0.6426 0.6318 0.6378
vt 0.3682 0.0035 0.3574
vt 0.6318 0.0035 0.3574
vt 0.6426 0.6378 0.6318
vt 0.6176 0.6378 0.6318
vt 0.6176 0.0035 0.6318
vt 0.6426 0.0035 0.6318
vt 0.3682 0.0035 0.3824
vt 0.6318 0.0035 0.3824
vt 0.3824 0.6378 0.3682
vt 0.3574 0.6378 0.3682
vt 0.3574 0.0035 0.3682
vt 0.3824 0.0035 0.3682
# 110 texture coords

g zhi_shi_pai01
usemtl bu_xiu_gang
s 2
f 1/1/1 2/2/1 3/3/1 4/4/1 
s 4
f 5/5/2 6/6/2 7/7/2 8/8/2 
s 16
f 9/9/3 10/10/3 11/11/3 12/12/3 
s 32
f 13/13/4 14/14/3 2/15/4 8/16/4 
f 2/15/4 1/17/4 8/16/4 
f 13/13/4 8/16/4 7/18/4 
s 64
f 1/19/5 4/20/5 5/21/5 8/22/5 
s off
f 15/23/6 13/24/6 10/10/6 9/9/6 
f 13/13/4 7/18/4 11/25/4 10/26/4 
f 7/27/7 6/28/7 12/12/7 11/11/7 
f 4/29/8 3/30/8 16/31/8 17/32/8 
f 16/31/8 15/33/8 17/32/8 
f 4/29/8 17/32/8 18/34/8 
f 15/33/9 9/35/9 19/36/9 17/32/9 
f 19/36/9 9/35/9 12/37/9 20/38/9 
f 12/37/10 6/39/10 21/40/10 20/38/10 
f 6/39/8 5/41/8 22/42/8 21/40/8 
f 5/41/8 4/29/8 18/34/8 22/42/8 
f 18/43/2 17/44/2 23/45/2 24/46/2 
f 17/47/11 19/48/11 25/49/11 23/50/11 
f 19/51/3 20/52/3 26/53/3 25/54/3 
f 20/55/12 21/56/12 27/57/12 26/58/12 
f 21/59/1 22/60/1 28/61/1 27/62/1 
f 22/63/3 18/64/3 24/65/3 28/66/3 
s 2
f 13/67/1 15/68/1 16/69/1 14/70/1 
f 29/71/1 30/72/1 31/73/1 32/74/1 
s off
f 3/75/5 2/76/5 33/77/5 34/78/5 
f 3/75/5 34/78/5 35/79/5 36/80/5 
f 2/15/4 14/14/4 37/81/4 33/82/4 
f 14/83/3 16/84/3 38/85/3 39/86/3 
f 14/83/3 39/86/3 40/87/3 37/88/3 
f 16/31/8 3/30/8 36/89/8 38/90/8 
s 2
f 38/91/1 36/92/1 35/93/1 39/94/1 
f 33/95/1 37/96/1 40/97/1 34/98/1 
s off
f 35/79/5 34/78/5 31/99/5 30/100/5 
f 34/101/4 40/102/4 32/103/4 31/104/4 
f 40/87/3 39/86/3 29/105/3 32/106/3 
f 39/107/8 35/108/8 30/109/8 29/110/8 
# 34 polygons - 4 triangles

#
# object chen_pai_c2
#

v  -9.7604 14.4023 -0.0909
v  7.2795 14.4023 -0.0909
v  7.3060 20.3106 -0.0909
v  -9.7604 20.3106 -0.0909
v  9.7604 17.4370 -0.0909
v  9.7604 17.4948 -0.0909
# 6 vertices

vn 0.0000 0.0000 1.0000
# 1 vertex normals

vt -0.0025 -0.0385 0.5000
vt 0.8550 -0.0385 0.5000
vt 0.8563 1.0467 0.5000
vt -0.0025 1.0467 0.5000
vt 0.9798 0.5189 0.5000
vt 0.9798 0.5295 0.5000
# 6 texture coords

g chen_pai_c2
usemtl che_pai_caiz03
s 8
f 41/111/13 42/112/13 43/113/13 44/114/13 
s off
f 45/115/13 43/113/13 42/112/13 46/116/13 
# 2 polygons

