# 3ds Max Wavefront OBJ Exporter v0.97b - (c)2007 guruware
# 创建的文件:19.11.2019 16:16:05

mtllib shop1.mtl

#
# object shop1
#

v  -29.4831 -0.8324 104.9605
v  -29.4831 -0.8324 -104.9605
v  63.5239 -0.8324 -104.9605
v  63.5239 -0.8324 -100.6309
v  63.5239 -0.8324 100.6309
v  63.5239 -0.8324 104.9605
v  -25.9497 62.6079 101.4271
v  59.9905 62.6079 101.4271
v  59.9905 62.6079 -101.4271
v  -25.9497 62.6079 -101.4271
v  63.5239 37.4476 104.9605
v  63.5239 41.4359 104.9605
v  63.5239 57.6955 104.9605
v  63.5239 60.9085 104.9605
v  63.5239 66.5923 104.9605
v  -29.4831 66.5923 104.9605
v  63.5239 2.0386 -100.6309
v  63.5239 2.0386 -72.4489
v  63.5239 2.0386 -67.2070
v  63.5239 2.0386 -37.2388
v  63.5239 2.0386 -42.4806
v  63.5239 2.0386 17.6050
v  63.5239 2.0386 -17.6050
v  63.5239 2.0386 -12.3632
v  63.5239 2.0386 12.3632
v  63.5239 2.0386 37.2388
v  63.5239 2.0386 42.4806
v  63.5239 2.0386 72.4488
v  63.5239 2.0386 67.2070
v  63.5239 2.0386 100.6309
v  -29.4831 66.5923 -104.9605
v  63.5239 37.4476 -104.9605
v  63.5239 66.5923 -104.9605
v  63.5239 60.9085 -104.9605
v  63.5239 57.6955 -104.9605
v  63.5239 41.4359 -104.9605
v  63.5239 41.4359 -100.4556
v  63.5239 41.4359 -76.7470
v  63.5239 41.4359 -73.9363
v  63.5239 41.4359 -51.6331
v  63.5239 41.4359 -48.8224
v  63.5239 41.4359 -26.5192
v  63.5239 41.4359 -23.7085
v  63.5239 41.4359 -1.4053
v  63.5239 41.4359 1.4053
v  63.5239 41.4359 23.7085
v  63.5239 41.4359 26.5192
v  63.5239 41.4359 48.8224
v  63.5239 41.4359 51.6331
v  63.5239 41.4359 73.9363
v  63.5239 41.4359 76.7470
v  63.5239 41.4359 100.4556
v  63.5239 37.4476 100.6309
v  63.5239 37.4476 72.4488
v  63.5239 37.4476 67.2070
v  63.5239 37.4476 37.2388
v  63.5239 37.4476 42.4806
v  63.5239 37.4476 -17.6050
v  63.5239 37.4476 17.6050
v  63.5239 37.4476 12.3632
v  63.5239 37.4476 -12.3632
v  63.5239 37.4476 -37.2388
v  63.5239 37.4476 -42.4806
v  63.5239 37.4476 -72.4489
v  63.5239 37.4476 -67.2070
v  63.5239 37.4476 -100.6309
v  59.9905 66.5923 101.4271
v  -25.9497 66.5923 101.4271
v  59.9905 66.5923 -101.4271
v  -25.9497 66.5923 -101.4271
v  63.5239 57.6955 100.4556
v  63.5239 57.6955 76.7470
v  63.5239 57.6955 73.9363
v  63.5239 57.6955 51.6331
v  63.5239 57.6955 48.8224
v  63.5239 57.6955 26.5192
v  63.5239 57.6955 23.7085
v  63.5239 57.6955 1.4053
v  63.5239 57.6955 -1.4053
v  63.5239 57.6955 -23.7085
v  63.5239 57.6955 -26.5192
v  63.5239 57.6955 -48.8224
v  63.5239 57.6955 -51.6331
v  63.5239 57.6955 -73.9363
v  63.5239 57.6955 -76.7470
v  63.5239 57.6955 -100.4556
v  61.0600 37.4476 -17.6050
v  61.0600 37.4476 -37.2388
v  61.0600 2.0386 -17.6050
v  61.0600 2.0386 -37.2388
v  61.0600 2.0386 100.6309
v  61.0600 37.4476 100.6309
v  61.0600 2.0386 72.4488
v  61.0600 37.4476 72.4488
v  61.0600 37.4476 37.2388
v  61.0600 37.4476 17.6050
v  61.0600 2.0386 37.2388
v  61.0600 2.0386 17.6050
v  61.0600 37.4476 -72.4489
v  61.0600 37.4476 -100.6309
v  61.0600 2.0386 -72.4489
v  61.0600 2.0386 -100.6309
v  61.0600 37.4476 67.2070
v  61.0600 37.4476 42.4806
v  61.0600 2.0386 67.2070
v  61.0600 2.0386 42.4806
v  61.0600 37.4476 12.3632
v  61.0600 37.4476 -12.3632
v  61.0600 2.0386 12.3632
v  61.0600 2.0386 -12.3632
v  61.0600 37.4476 -42.4806
v  61.0600 37.4476 -67.2070
v  61.0600 2.0386 -42.4806
v  61.0600 2.0386 -67.2070
v  63.2889 42.2333 -22.9112
v  63.2889 42.2333 -2.2027
v  63.2889 56.8982 -22.9112
v  63.2889 56.8982 -2.2027
v  63.2889 42.2333 77.5443
v  63.2889 42.2333 99.6582
v  63.2889 56.8982 77.5443
v  63.2889 56.8982 99.6582
v  63.2889 42.2333 52.4305
v  63.2889 42.2333 73.1390
v  63.2889 56.8982 52.4305
v  63.2889 56.8982 73.1390
v  63.2889 42.2333 27.3166
v  63.2889 42.2333 48.0251
v  63.2889 56.8982 27.3166
v  63.2889 56.8982 48.0251
v  63.2889 42.2333 2.2027
v  63.2889 42.2333 22.9112
v  63.2889 56.8982 2.2027
v  63.2889 56.8982 22.9112
v  63.2889 42.2333 -99.6582
v  63.2889 42.2333 -77.5443
v  63.2889 56.8982 -99.6582
v  63.2889 56.8982 -77.5443
v  63.2889 42.2333 -73.1390
v  63.2889 42.2333 -52.4305
v  63.2889 56.8982 -73.1390
v  63.2889 56.8982 -52.4305
v  63.2889 42.2333 -48.0251
v  63.2889 42.2333 -27.3166
v  63.2889 56.8982 -48.0251
v  63.2889 56.8982 -27.3166
v  61.9396 42.2333 -22.9112
v  61.9396 42.2333 -2.2027
v  61.9396 56.8982 -22.9112
v  61.9396 56.8982 -2.2027
v  61.9396 42.2333 77.5443
v  61.9396 42.2333 99.6582
v  61.9396 56.8982 77.5443
v  61.9396 56.8982 99.6582
v  61.9396 42.2333 52.4305
v  61.9396 42.2333 73.1390
v  61.9396 56.8982 52.4305
v  61.9396 56.8982 73.1390
v  61.9396 42.2333 27.3166
v  61.9396 42.2333 48.0251
v  61.9396 56.8982 27.3166
v  61.9396 56.8982 48.0251
v  61.9396 42.2333 2.2027
v  61.9396 42.2333 22.9112
v  61.9396 56.8982 2.2027
v  61.9396 56.8982 22.9112
v  61.9396 42.2333 -99.6582
v  61.9396 42.2333 -77.5443
v  61.9396 56.8982 -99.6582
v  61.9396 56.8982 -77.5443
v  61.9396 42.2333 -73.1390
v  61.9396 42.2333 -52.4305
v  61.9396 56.8982 -73.1390
v  61.9396 56.8982 -52.4305
v  61.9396 42.2333 -48.0251
v  61.9396 42.2333 -27.3166
v  61.9396 56.8982 -48.0251
v  61.9396 56.8982 -27.3166
# 178 vertices

vn 0.0000 -1.0000 -0.0000
vn 0.0000 1.0000 -0.0000
vn 0.0000 0.0000 1.0000
vn 1.0000 0.0000 -0.0000
vn -1.0000 0.0000 -0.0000
vn 0.0000 0.0000 -1.0000
vn 0.0000 1.0000 0.0000
vn 0.9592 0.2827 -0.0000
vn 0.9592 0.0000 0.2827
vn 0.9592 -0.2827 -0.0000
vn 0.9592 0.0000 -0.2827
# 11 vertex normals

vt 5.1504 -9.9960 -2.8712
vt 5.1503 10.9960 -2.8712
vt -4.1504 10.9960 -2.8712
vt -4.1504 10.5631 -2.8712
vt -4.1503 -9.5631 -2.8712
vt -4.1503 -9.9960 -2.8712
vt -3.7970 -9.6427 3.4728
vt 4.7970 -9.6427 3.4728
vt 4.7970 10.6427 3.4728
vt -3.7970 10.6427 3.4728
vt -4.1504 -2.8712 -9.9960
vt 5.1503 -2.8712 -9.9960
vt 5.1503 0.9568 -9.9960
vt 5.1503 1.3556 -9.9960
vt 5.1503 2.9816 -9.9960
vt 5.1503 3.3029 -9.9960
vt 5.1503 3.8712 -9.9960
vt -4.1504 3.8712 -9.9960
vt 10.5631 -2.5841 5.1504
vt 7.7449 -2.5841 5.1504
vt 7.2207 -2.5841 5.1504
vt 4.2239 -2.5841 5.1504
vt 4.7481 -2.5841 5.1504
vt 10.5631 -2.8712 5.1504
vt -1.2605 -2.5841 5.1504
vt 2.2605 -2.5841 5.1504
vt 1.7363 -2.5841 5.1504
vt -0.7363 -2.5841 5.1504
vt -3.2239 -2.5841 5.1503
vt -3.7481 -2.5841 5.1503
vt -6.7449 -2.5841 5.1503
vt -6.2207 -2.5841 5.1503
vt -9.5631 -2.5841 5.1503
vt -9.5631 -2.8712 5.1503
vt -4.1504 -2.8712 10.9960
vt 5.1503 -2.8712 10.9960
vt 5.1503 3.8712 10.9960
vt -4.1504 0.9568 10.9960
vt -4.1504 3.8712 10.9960
vt -4.1504 3.3029 10.9960
vt -4.1504 2.9816 10.9960
vt -4.1504 1.3556 10.9960
vt -9.9960 -2.8712 -4.1503
vt 10.9960 -2.8712 -4.1504
vt 10.9960 3.8712 -4.1504
vt -9.9960 3.8712 -4.1503
vt 10.5456 1.3556 5.1504
vt 8.1747 1.3556 5.1504
vt 7.8936 1.3556 5.1504
vt -9.9960 0.9568 5.1503
vt 5.6633 1.3556 5.1504
vt 5.3822 1.3556 5.1504
vt 3.1519 1.3556 5.1504
vt 2.8709 1.3556 5.1504
vt 0.6405 1.3556 5.1504
vt 0.3595 1.3556 5.1504
vt -1.8709 1.3556 5.1504
vt -2.1519 1.3556 5.1504
vt -4.3822 1.3556 5.1503
vt -4.6633 1.3556 5.1503
vt -6.8936 1.3556 5.1503
vt -7.1747 1.3556 5.1503
vt -9.5456 1.3556 5.1503
vt -9.9960 1.3556 5.1503
vt 10.9960 1.3556 5.1504
vt -9.5631 0.9568 5.1503
vt -6.7449 0.9568 5.1503
vt -6.2207 0.9568 5.1503
vt -3.2239 0.9568 5.1503
vt -3.7481 0.9568 5.1503
vt 2.2605 0.9568 5.1504
vt -1.2605 0.9568 5.1504
vt -0.7363 0.9568 5.1504
vt 1.7363 0.9568 5.1504
vt 4.2239 0.9568 5.1504
vt 4.7481 0.9568 5.1504
vt 7.7449 0.9568 5.1504
vt 7.2207 0.9568 5.1504
vt 10.5631 0.9568 5.1504
vt 10.9960 0.9568 5.1504
vt 10.9960 3.8712 5.1504
vt -9.9960 3.8712 5.1503
vt -9.9960 3.3029 5.1503
vt 10.9960 3.3029 5.1504
vt -4.1504 -9.9960 3.8712
vt 5.1503 -9.9960 3.8712
vt 4.7970 -9.6427 3.8712
vt -3.7970 -9.6427 3.8712
vt 5.1504 10.9960 3.8712
vt 4.7970 10.6427 3.8712
vt -4.1503 10.9960 3.8712
vt -3.7970 10.6427 3.8712
vt 4.7970 3.8712 -9.6427
vt -3.7970 3.8712 -9.6427
vt -3.7970 3.4728 -9.6427
vt 4.7970 3.4728 -9.6427
vt 10.6427 3.8712 4.7970
vt -9.6427 3.8712 4.7970
vt -9.6427 3.4728 4.7970
vt 10.6427 3.4728 4.7970
vt 4.7970 3.8712 10.6427
vt -3.7970 3.8712 10.6427
vt -3.7970 3.4728 10.6427
vt 4.7970 3.4728 10.6427
vt 10.6427 3.8712 -3.7970
vt -9.6427 3.8712 -3.7970
vt -9.6427 3.4728 -3.7970
vt 10.6427 3.4728 -3.7970
vt 10.9960 -2.8712 5.1504
vt -9.9960 -2.8712 5.1503
vt -9.9960 2.9816 5.1503
vt -9.5456 2.9816 5.1503
vt -7.1747 2.9816 5.1503
vt -6.8936 2.9816 5.1503
vt -4.6633 2.9816 5.1503
vt -4.3822 2.9816 5.1503
vt -2.1519 2.9816 5.1504
vt -1.8709 2.9816 5.1504
vt 0.3595 2.9816 5.1504
vt 0.6405 2.9816 5.1504
vt 2.8709 2.9816 5.1504
vt 3.1519 2.9816 5.1504
vt 5.3822 2.9816 5.1504
vt 5.6633 2.9816 5.1504
vt 7.8936 2.9816 5.1504
vt 8.1747 2.9816 5.1504
vt 10.5456 2.9816 5.1504
vt 10.9960 2.9816 5.1504
vt -4.1504 4.2239 0.9568
vt -4.1504 2.2605 0.9568
vt -3.9040 2.2605 0.9568
vt -3.9040 4.2239 0.9568
vt -4.1504 0.9568 2.2605
vt -4.1504 -2.5841 2.2605
vt -3.9040 -2.5841 2.2605
vt -3.9040 0.9568 2.2605
vt 5.1504 2.2605 -2.5841
vt 5.1504 4.2239 -2.5841
vt 4.9040 4.2239 -2.5841
vt 4.9040 2.2605 -2.5841
vt 5.1504 -2.5841 4.2239
vt 5.1504 0.9568 4.2239
vt 4.9040 0.9568 4.2239
vt 4.9040 -2.5841 4.2239
vt -4.1503 0.9568 -9.5631
vt -4.1503 -2.5841 -9.5631
vt -3.9040 -2.5841 -9.5631
vt -3.9040 0.9568 -9.5631
vt 5.1503 -9.5631 -2.5841
vt 5.1503 -6.7449 -2.5841
vt 4.9040 -6.7449 -2.5841
vt 4.9040 -9.5631 -2.5841
vt 5.1503 -2.5841 -6.7449
vt 5.1503 0.9568 -6.7449
vt 4.9040 0.9568 -6.7449
vt 4.9040 -2.5841 -6.7449
vt -4.1503 -6.7449 0.9568
vt -4.1503 -9.5631 0.9568
vt -3.9040 -9.5631 0.9568
vt -3.9040 -6.7449 0.9568
vt -4.1504 -1.2605 0.9568
vt -4.1503 -3.2239 0.9568
vt -3.9040 -3.2239 0.9568
vt -3.9040 -1.2605 0.9568
vt -4.1503 0.9568 -3.2239
vt -4.1503 -2.5841 -3.2239
vt -3.9040 -2.5841 -3.2239
vt -3.9040 0.9568 -3.2239
vt 5.1503 -3.2239 -2.5841
vt 5.1504 -1.2605 -2.5841
vt 4.9040 -1.2605 -2.5841
vt 4.9040 -3.2239 -2.5841
vt 5.1504 -2.5841 -1.2605
vt 5.1504 0.9568 -1.2605
vt 4.9040 0.9568 -1.2605
vt 4.9040 -2.5841 -1.2605
vt -4.1504 10.5631 0.9568
vt -4.1504 7.7449 0.9568
vt -3.9040 7.7449 0.9568
vt -3.9040 10.5631 0.9568
vt -4.1504 0.9568 7.7449
vt -4.1504 -2.5841 7.7449
vt -3.9040 -2.5841 7.7449
vt -3.9040 0.9568 7.7449
vt 5.1504 7.7449 -2.5841
vt 5.1504 10.5631 -2.5841
vt 4.9040 10.5631 -2.5841
vt 4.9040 7.7449 -2.5841
vt 5.1504 -2.5841 10.5631
vt 5.1504 0.9568 10.5631
vt 4.9040 0.9568 10.5631
vt 4.9040 -2.5841 10.5631
vt -4.1503 -3.7481 0.9568
vt -4.1503 -6.2207 0.9568
vt -3.9040 -6.2207 0.9568
vt -3.9040 -3.7481 0.9568
vt -4.1503 0.9568 -6.2207
vt -4.1503 -2.5841 -6.2207
vt -3.9040 -2.5841 -6.2207
vt -3.9040 0.9568 -6.2207
vt 5.1503 -6.2207 -2.5841
vt 5.1503 -3.7481 -2.5841
vt 4.9040 -3.7481 -2.5841
vt 4.9040 -6.2207 -2.5841
vt 5.1503 -2.5841 -3.7481
vt 5.1503 0.9568 -3.7481
vt 4.9040 0.9568 -3.7481
vt 4.9040 -2.5841 -3.7481
vt -4.1504 1.7363 0.9568
vt -4.1504 -0.7363 0.9568
vt -3.9040 -0.7363 0.9568
vt -3.9040 1.7363 0.9568
vt -4.1504 0.9568 -0.7363
vt -4.1504 -2.5841 -0.7363
vt -3.9040 -2.5841 -0.7363
vt -3.9040 0.9568 -0.7363
vt 5.1504 -0.7363 -2.5841
vt 5.1504 1.7363 -2.5841
vt 4.9040 1.7363 -2.5841
vt 4.9040 -0.7363 -2.5841
vt 5.1504 -2.5841 1.7363
vt 5.1504 0.9568 1.7363
vt 4.9040 0.9568 1.7363
vt 4.9040 -2.5841 1.7363
vt -4.1504 7.2207 0.9568
vt -4.1504 4.7481 0.9568
vt -3.9040 4.7481 0.9568
vt -3.9040 7.2207 0.9568
vt -4.1504 0.9568 4.7481
vt -4.1504 -2.5841 4.7481
vt -3.9040 -2.5841 4.7481
vt -3.9040 0.9568 4.7481
vt 5.1504 4.7481 -2.5841
vt 5.1504 7.2207 -2.5841
vt 4.9040 7.2207 -2.5841
vt 4.9040 4.7481 -2.5841
vt 5.1504 -2.5841 7.2207
vt 5.1504 0.9568 7.2207
vt 4.9040 0.9568 7.2207
vt 4.9040 -2.5841 7.2207
vt 2.7911 1.4353 5.1269
vt 0.7203 1.4353 5.1269
vt 2.7911 2.9018 5.1269
vt 0.7203 2.9018 5.1269
vt -7.2544 1.4353 5.1268
vt -9.4658 1.4353 5.1268
vt -7.2544 2.9018 5.1268
vt -9.4658 2.9018 5.1268
vt -4.7430 1.4353 5.1268
vt -6.8139 1.4353 5.1268
vt -4.7430 2.9018 5.1268
vt -6.8139 2.9018 5.1268
vt -2.2317 1.4353 5.1269
vt -4.3025 1.4353 5.1268
vt -2.2317 2.9018 5.1269
vt -4.3025 2.9018 5.1268
vt 0.2797 1.4353 5.1269
vt -1.7911 1.4353 5.1269
vt 0.2797 2.9018 5.1269
vt -1.7911 2.9018 5.1269
vt 10.4658 1.4353 5.1269
vt 8.2544 1.4353 5.1269
vt 10.4658 2.9018 5.1269
vt 8.2544 2.9018 5.1269
vt 7.8139 1.4353 5.1269
vt 5.7430 1.4353 5.1269
vt 7.8139 2.9018 5.1269
vt 5.7430 2.9018 5.1269
vt 5.3025 1.4353 5.1269
vt 3.2317 1.4353 5.1269
vt 5.3025 2.9018 5.1269
vt 3.2317 2.9018 5.1269
vt 5.1269 0.7203 1.4353
vt 5.1269 2.7911 1.4353
vt 4.9919 2.7911 1.4353
vt 4.9919 0.7203 1.4353
vt 5.1269 1.4353 2.7911
vt 5.1269 2.9018 2.7911
vt 4.9919 2.9018 2.7911
vt 4.9919 1.4353 2.7911
vt -4.1269 2.7911 2.9018
vt -4.1269 0.7203 2.9018
vt -3.9919 0.7203 2.9018
vt -3.9919 2.7911 2.9018
vt -4.1269 2.9018 0.7203
vt -4.1269 1.4353 0.7203
vt -3.9919 1.4353 0.7203
vt -3.9919 2.9018 0.7203
vt 5.1268 -9.4658 1.4353
vt 5.1268 -7.2544 1.4353
vt 4.9919 -7.2544 1.4353
vt 4.9919 -9.4658 1.4353
vt 5.1268 1.4353 -7.2544
vt 5.1268 2.9018 -7.2544
vt 4.9919 2.9018 -7.2544
vt 4.9919 1.4353 -7.2544
vt -4.1268 -7.2544 2.9018
vt -4.1268 -9.4658 2.9018
vt -3.9919 -9.4658 2.9018
vt -3.9919 -7.2544 2.9018
vt -4.1268 2.9018 -9.4658
vt -4.1268 1.4353 -9.4658
vt -3.9919 1.4353 -9.4658
vt -3.9919 2.9018 -9.4658
vt 5.1268 -6.8139 1.4353
vt 5.1268 -4.7430 1.4353
vt 4.9919 -4.7430 1.4353
vt 4.9919 -6.8139 1.4353
vt 5.1268 1.4353 -4.7430
vt 5.1268 2.9018 -4.7430
vt 4.9919 2.9018 -4.7430
vt 4.9919 1.4353 -4.7430
vt -4.1268 -4.7430 2.9018
vt -4.1268 -6.8139 2.9018
vt -3.9919 -6.8139 2.9018
vt -3.9919 -4.7430 2.9018
vt -4.1268 2.9018 -6.8139
vt -4.1268 1.4353 -6.8139
vt -3.9919 1.4353 -6.8139
vt -3.9919 2.9018 -6.8139
vt 5.1268 -4.3025 1.4353
vt 5.1269 -2.2317 1.4353
vt 4.9919 -2.2317 1.4353
vt 4.9919 -4.3025 1.4353
vt 5.1269 1.4353 -2.2317
vt 5.1269 2.9018 -2.2317
vt 4.9919 2.9018 -2.2317
vt 4.9919 1.4353 -2.2317
vt -4.1269 -2.2317 2.9018
vt -4.1268 -4.3025 2.9018
vt -3.9919 -4.3025 2.9018
vt -3.9919 -2.2317 2.9018
vt -4.1268 2.9018 -4.3025
vt -4.1268 1.4353 -4.3025
vt -3.9919 1.4353 -4.3025
vt -3.9919 2.9018 -4.3025
vt 5.1269 -1.7911 1.4353
vt 5.1269 0.2797 1.4353
vt 4.9919 0.2797 1.4353
vt 4.9919 -1.7911 1.4353
vt 5.1269 1.4353 0.2797
vt 5.1269 2.9018 0.2797
vt 4.9919 2.9018 0.2797
vt 4.9919 1.4353 0.2797
vt -4.1269 0.2797 2.9018
vt -4.1269 -1.7911 2.9018
vt -3.9919 -1.7911 2.9018
vt -3.9919 0.2797 2.9018
vt -4.1269 2.9018 -1.7911
vt -4.1269 1.4353 -1.7911
vt -3.9919 1.4353 -1.7911
vt -3.9919 2.9018 -1.7911
vt 5.1269 8.2544 1.4353
vt 5.1269 10.4658 1.4353
vt 4.9919 10.4658 1.4353
vt 4.9919 8.2544 1.4353
vt 5.1269 1.4353 10.4658
vt 5.1269 2.9018 10.4658
vt 4.9919 2.9018 10.4658
vt 4.9919 1.4353 10.4658
vt -4.1269 10.4658 2.9018
vt -4.1269 8.2544 2.9018
vt -3.9919 8.2544 2.9018
vt -3.9919 10.4658 2.9018
vt -4.1269 2.9018 8.2544
vt -4.1269 1.4353 8.2544
vt -3.9919 1.4353 8.2544
vt -3.9919 2.9018 8.2544
vt 5.1269 5.7430 1.4353
vt 5.1269 7.8139 1.4353
vt 4.9919 7.8139 1.4353
vt 4.9919 5.7430 1.4353
vt 5.1269 1.4353 7.8139
vt 5.1269 2.9018 7.8139
vt 4.9919 2.9018 7.8139
vt 4.9919 1.4353 7.8139
vt -4.1269 7.8139 2.9018
vt -4.1269 5.7430 2.9018
vt -3.9919 5.7430 2.9018
vt -3.9919 7.8139 2.9018
vt -4.1269 2.9018 5.7430
vt -4.1269 1.4353 5.7430
vt -3.9919 1.4353 5.7430
vt -3.9919 2.9018 5.7430
vt 5.1269 3.2317 1.4353
vt 5.1269 5.3025 1.4353
vt 4.9919 5.3025 1.4353
vt 4.9919 3.2317 1.4353
vt 5.1269 1.4353 5.3025
vt 5.1269 2.9018 5.3025
vt 4.9919 2.9018 5.3025
vt 4.9919 1.4353 5.3025
vt -4.1269 5.3025 2.9018
vt -4.1269 3.2317 2.9018
vt -3.9919 3.2317 2.9018
vt -3.9919 5.3025 2.9018
vt -4.1269 2.9018 3.2317
vt -4.1269 1.4353 3.2317
vt -3.9919 1.4353 3.2317
vt -3.9919 2.9018 3.2317
vt 0.5109 0.9995 0.9995
vt 0.5109 0.7325 0.9995
vt 0.6137 0.7325 0.9995
vt 0.6137 0.9995 0.9995
vt 0.0053 0.9995 0.9994
vt 0.0053 0.7325 0.9994
vt 0.1151 0.7325 0.9995
vt 0.1151 0.9995 0.9995
vt 0.1370 0.9995 0.9995
vt 0.1370 0.7325 0.9995
vt 0.2398 0.7325 0.9995
vt 0.2398 0.9995 0.9995
vt 0.2616 0.9995 0.9995
vt 0.2616 0.7325 0.9995
vt 0.3644 0.7325 0.9995
vt 0.3644 0.9995 0.9995
vt 0.3863 0.9995 0.9995
vt 0.3863 0.7325 0.9995
vt 0.4891 0.7325 0.9995
vt 0.4891 0.9995 0.9995
vt 0.9947 0.7325 0.9995
vt 0.9947 0.9995 0.9995
vt 0.8849 0.9995 0.9995
vt 0.8849 0.7325 0.9995
vt 0.8630 0.7325 0.9995
vt 0.8630 0.9995 0.9995
vt 0.7602 0.9995 0.9995
vt 0.7602 0.7325 0.9995
vt 0.7384 0.7325 0.9995
vt 0.7384 0.9995 0.9995
vt 0.6356 0.9995 0.9995
vt 0.6356 0.7325 0.9995
vt 0.5874 0.6453 0.0005
vt 0.5874 0.0005 0.0005
vt 0.6848 0.0005 0.0005
vt 0.6848 0.6453 0.0005
vt 0.0005 0.6453 0.0005
vt 0.0005 0.0005 0.0005
vt 0.1404 0.0005 0.0005
vt 0.1404 0.6453 0.0005
vt 0.3152 0.6453 0.0005
vt 0.3152 0.0005 0.0005
vt 0.4126 0.0005 0.0005
vt 0.4126 0.6453 0.0005
vt 0.9995 0.0005 0.0005
vt 0.9995 0.6453 0.0005
vt 0.8596 0.6453 0.0005
vt 0.8596 0.0005 0.0005
vt 0.2891 0.6453 0.0005
vt 0.1664 0.6453 0.0005
vt 0.1664 0.0005 0.0005
vt 0.2891 0.0005 0.0005
vt 0.5614 0.6453 0.0005
vt 0.4386 0.6453 0.0005
vt 0.4386 0.0005 0.0005
vt 0.5614 0.0005 0.0005
vt 0.7109 0.0005 0.0005
vt 0.8336 0.0005 0.0005
vt 0.8336 0.6453 0.0005
vt 0.7109 0.6453 0.0005
# 460 texture coords

g shop1
usemtl vnm2
s 2
f 1/1/1 2/2/1 3/3/1 4/4/1 
f 1/1/1 4/4/1 5/5/1 6/6/1 
usemtl vnm13
s 4
f 7/7/2 8/8/2 9/9/2 10/10/2 
usemtl vnm2
s 8
f 1/11/3 6/12/3 11/13/3 12/14/3 
f 1/11/3 12/14/3 13/15/3 14/16/3 
f 1/11/3 14/16/3 15/17/3 16/18/3 
s 16
f 17/19/4 18/20/5 19/21/4 20/22/4 
f 19/21/4 21/23/5 20/22/4 
f 4/24/4 17/19/4 20/22/4 22/25/4 
f 20/22/4 23/26/4 24/27/4 22/25/4 
f 24/27/4 25/28/5 22/25/4 
f 22/25/4 26/29/4 27/30/4 28/31/4 
f 27/30/4 29/32/5 28/31/4 
f 4/24/4 22/25/4 28/31/4 30/33/4 
f 5/34/4 4/24/4 30/33/4 
s 32
f 3/35/6 2/36/6 31/37/6 32/38/6 
f 31/37/6 33/39/6 34/40/6 35/41/6 
f 31/37/6 35/41/6 36/42/6 32/38/6 
s 64
f 2/43/5 1/44/5 16/45/5 31/46/5 
s 16
f 37/47/4 38/48/4 39/49/4 11/50/4 
f 39/49/4 40/51/4 41/52/4 11/50/4 
f 41/52/4 42/53/4 43/54/4 11/50/4 
f 43/54/4 44/55/4 45/56/4 11/50/4 
f 45/56/4 46/57/4 47/58/4 11/50/4 
f 47/58/4 48/59/4 49/60/4 11/50/4 
f 49/60/4 50/61/4 51/62/4 11/50/4 
f 52/63/4 12/64/4 11/50/4 51/62/4 
f 36/65/4 37/47/4 11/50/4 53/66/4 
f 53/66/4 54/67/4 55/68/4 56/69/4 
f 55/68/4 57/70/4 56/69/4 
f 36/65/4 53/66/4 56/69/4 58/71/4 
f 56/69/4 59/72/4 60/73/4 58/71/4 
f 60/73/4 61/74/4 58/71/4 
f 58/71/4 62/75/4 63/76/4 64/77/4 
f 63/76/4 65/78/4 64/77/4 
f 36/65/4 58/71/4 64/77/4 66/79/4 
f 32/80/4 36/65/4 66/79/4 
usemtl vnm9
f 33/81/4 15/82/4 14/83/4 34/84/4 
s off
f 16/85/2 15/86/2 67/87/2 68/88/2 
f 15/86/2 33/89/2 69/90/2 67/87/2 
f 33/89/2 31/91/2 70/92/2 69/90/2 
f 31/91/2 16/85/2 68/88/2 70/92/2 
f 68/93/6 67/94/6 8/95/6 7/96/6 
f 67/97/5 69/98/5 9/99/5 8/100/5 
f 69/101/3 70/102/3 10/103/3 9/104/3 
f 70/105/4 68/106/4 7/107/4 10/108/4 
usemtl vnm2
s 16
f 3/109/4 32/80/4 66/79/4 17/19/4 
f 4/24/4 3/109/4 17/19/4 
f 11/50/4 6/110/4 5/34/4 30/33/4 
f 53/66/4 11/50/4 30/33/4 
f 34/84/4 14/83/4 13/111/4 71/112/4 
f 71/112/4 72/113/4 73/114/4 34/84/4 
f 73/114/4 74/115/4 75/116/4 34/84/4 
f 75/116/4 76/117/4 77/118/4 34/84/4 
f 77/118/4 78/119/4 79/120/4 34/84/4 
f 79/120/4 80/121/4 81/122/4 34/84/4 
f 81/122/4 82/123/4 83/124/4 34/84/4 
f 83/124/4 84/125/4 85/126/4 34/84/4 
f 34/84/4 85/126/4 86/127/4 35/128/4 
f 13/111/4 12/64/4 52/63/4 71/112/4 
f 36/65/4 35/128/4 86/127/4 37/47/4 
f 73/114/4 72/113/4 51/62/4 50/61/4 
f 75/116/4 74/115/4 49/60/4 48/59/4 
f 77/118/4 76/117/4 47/58/4 46/57/4 
f 79/120/4 78/119/4 45/56/4 44/55/4 
f 39/49/4 38/48/4 85/126/4 84/125/4 
f 41/52/4 40/51/4 83/124/4 82/123/4 
f 43/54/4 42/53/4 81/122/4 80/121/4 
f 56/69/4 57/70/4 27/30/4 26/29/4 
f 58/71/4 61/74/4 24/27/4 23/26/4 
f 20/22/4 21/23/5 63/76/4 62/75/4 
f 55/68/4 54/67/4 28/31/4 29/32/5 
f 60/73/4 59/72/4 22/25/4 25/28/5 
f 19/21/4 18/20/5 64/77/4 65/78/4 
s off
f 62/129/1 58/130/1 87/131/1 88/132/1 
f 58/133/6 23/134/6 89/135/6 87/136/6 
f 23/137/2 20/138/2 90/139/2 89/140/2 
f 20/141/3 62/142/3 88/143/3 90/144/3 
f 53/145/6 30/146/6 91/147/6 92/148/6 
f 30/149/7 28/150/7 93/151/7 91/152/7 
f 28/153/3 54/154/3 94/155/3 93/156/3 
f 54/157/1 53/158/1 92/159/1 94/160/1 
f 59/161/1 56/162/1 95/163/1 96/164/1 
f 56/165/6 26/166/6 97/167/6 95/168/6 
f 26/169/2 22/170/2 98/171/2 97/172/2 
f 22/173/3 59/174/3 96/175/3 98/176/3 
f 66/177/1 64/178/1 99/179/1 100/180/1 
f 64/181/6 18/182/6 101/183/6 99/184/6 
f 18/185/7 17/186/7 102/187/7 101/188/7 
f 17/189/3 66/190/3 100/191/3 102/192/3 
f 57/193/1 55/194/1 103/195/1 104/196/1 
f 55/197/6 29/198/6 105/199/6 103/200/6 
f 29/201/7 27/202/7 106/203/7 105/204/7 
f 27/205/3 57/206/3 104/207/3 106/208/3 
f 61/209/1 60/210/1 107/211/1 108/212/1 
f 60/213/6 25/214/6 109/215/6 107/216/6 
f 25/217/7 24/218/7 110/219/7 109/220/7 
f 24/221/3 61/222/3 108/223/3 110/224/3 
f 65/225/1 63/226/1 111/227/1 112/228/1 
f 63/229/6 21/230/6 113/231/6 111/232/6 
f 21/233/7 19/234/7 114/235/7 113/236/7 
f 19/237/3 65/238/3 112/239/3 114/240/3 
f 44/55/8 43/54/8 115/241/8 116/242/8 
f 43/54/9 80/121/9 117/243/9 115/241/9 
f 80/121/10 79/120/10 118/244/10 117/243/10 
f 79/120/11 44/55/11 116/242/11 118/244/11 
f 52/63/8 51/62/8 119/245/8 120/246/8 
f 51/62/9 72/113/9 121/247/9 119/245/9 
f 72/113/10 71/112/10 122/248/10 121/247/10 
f 71/112/11 52/63/11 120/246/11 122/248/11 
f 50/61/8 49/60/8 123/249/8 124/250/8 
f 49/60/9 74/115/9 125/251/9 123/249/9 
f 74/115/10 73/114/10 126/252/10 125/251/10 
f 73/114/11 50/61/11 124/250/11 126/252/11 
f 48/59/8 47/58/8 127/253/8 128/254/8 
f 47/58/9 76/117/9 129/255/9 127/253/9 
f 76/117/10 75/116/10 130/256/10 129/255/10 
f 75/116/11 48/59/11 128/254/11 130/256/11 
f 46/57/8 45/56/8 131/257/8 132/258/8 
f 45/56/9 78/119/9 133/259/9 131/257/9 
f 78/119/10 77/118/10 134/260/10 133/259/10 
f 77/118/11 46/57/11 132/258/11 134/260/11 
f 38/48/8 37/47/8 135/261/8 136/262/8 
f 37/47/9 86/127/9 137/263/9 135/261/9 
f 86/127/10 85/126/10 138/264/10 137/263/10 
f 85/126/11 38/48/11 136/262/11 138/264/11 
f 40/51/8 39/49/8 139/265/8 140/266/8 
f 39/49/9 84/125/9 141/267/9 139/265/9 
f 84/125/10 83/124/10 142/268/10 141/267/10 
f 83/124/11 40/51/11 140/266/11 142/268/11 
f 42/53/8 41/52/8 143/269/8 144/270/8 
f 41/52/9 82/123/9 145/271/9 143/269/9 
f 82/123/10 81/122/10 146/272/10 145/271/10 
f 81/122/11 42/53/11 144/270/11 146/272/11 
f 116/273/2 115/274/2 147/275/2 148/276/2 
f 115/277/3 117/278/3 149/279/3 147/280/3 
f 117/281/1 118/282/1 150/283/1 149/284/1 
f 118/285/6 116/286/6 148/287/6 150/288/6 
f 120/289/2 119/290/2 151/291/2 152/292/2 
f 119/293/3 121/294/3 153/295/3 151/296/3 
f 121/297/1 122/298/1 154/299/1 153/300/1 
f 122/301/6 120/302/6 152/303/6 154/304/6 
f 124/305/2 123/306/2 155/307/2 156/308/2 
f 123/309/3 125/310/3 157/311/3 155/312/3 
f 125/313/1 126/314/1 158/315/1 157/316/1 
f 126/317/6 124/318/6 156/319/6 158/320/6 
f 128/321/2 127/322/2 159/323/2 160/324/2 
f 127/325/3 129/326/3 161/327/3 159/328/3 
f 129/329/1 130/330/1 162/331/1 161/332/1 
f 130/333/6 128/334/6 160/335/6 162/336/6 
f 132/337/2 131/338/2 163/339/2 164/340/2 
f 131/341/3 133/342/3 165/343/3 163/344/3 
f 133/345/1 134/346/1 166/347/1 165/348/1 
f 134/349/6 132/350/6 164/351/6 166/352/6 
f 136/353/2 135/354/2 167/355/2 168/356/2 
f 135/357/3 137/358/3 169/359/3 167/360/3 
f 137/361/1 138/362/1 170/363/1 169/364/1 
f 138/365/6 136/366/6 168/367/6 170/368/6 
f 140/369/2 139/370/2 171/371/2 172/372/2 
f 139/373/3 141/374/3 173/375/3 171/376/3 
f 141/377/1 142/378/1 174/379/1 173/380/1 
f 142/381/6 140/382/6 172/383/6 174/384/6 
f 144/385/2 143/386/2 175/387/2 176/388/2 
f 143/389/3 145/390/3 177/391/3 175/392/3 
f 145/393/1 146/394/1 178/395/1 177/396/1 
f 146/397/6 144/398/6 176/399/6 178/400/6 
usemtl vnm11
s 16
f 150/401/4 148/402/4 147/403/4 149/404/4 
f 154/405/4 152/406/4 151/407/4 153/408/4 
f 158/409/4 156/410/4 155/411/4 157/412/4 
f 162/413/4 160/414/4 159/415/4 161/416/4 
f 166/417/4 164/418/4 163/419/4 165/420/4 
f 167/421/4 169/422/4 170/423/4 168/424/4 
f 171/425/4 173/426/4 174/427/4 172/428/4 
f 175/429/4 177/430/4 178/431/4 176/432/4 
usemtl vnm20
f 87/433/4 89/434/4 90/435/4 88/436/4 
f 92/437/4 91/438/4 93/439/4 94/440/4 
f 95/441/4 97/442/4 98/443/4 96/444/4 
f 102/445/4 100/446/4 99/447/4 101/448/4 
f 104/449/4 103/450/4 105/451/4 106/452/4 
f 108/453/4 107/454/4 109/455/4 110/456/4 
f 113/457/4 114/458/4 112/459/4 111/460/4 
# 171 polygons - 10 triangles

